Genre:Comedy
Language:English
IMDb:http://www.imdb.com/title/tt1307065/
Source:DVD
Sample:YES
...........................................
General
Complete name : Love.at.First.Hiccup.2009.DVDRip.XVID.FEEL-FREE
Format : AVI
Format/Info : Audio Video Interleave
File size : 823 MiB
Duration : 1h 25mn
Overall bit rate : 1 341 Kbps
...........................................
Video
Format : xvid
Codec ID : xvid
Duration : 1h 25mn
Bit rate : 1 200 Kbps
Width : 720 pixels
Height : 304 pixels
Display aspect ratio : 2.35:1
Frame rate : 25.000 fps
Resolution : 24 bits
Bits/(Pixel*Frame) : 0.219
Stream size : 737 MiB (89%)
...........................................
Audio
ID : 1
Format : MPEG Audio
Format version : Version 1
Format profile : Layer 3
Format settings, Mode : Joint stereo / MS Stereo
Codec ID : 55
Codec ID/Hint : MP3
Duration : 1h 25mn
Bit rate mode : Constant
Bit rate : 128 Kbps
Channel(s) : 2 channels
Sampling rate : 48.0 KHz
Resolution : 16 bits
Stream size : 78.6 MiB (10%)
Alignment : Aligned on interleaves
Interleave, duration : 24 ms (0.60 video frame)
Interleave, preload duration : 24 ms
Writing library : LAME3.97
............................................
Plot:
A high school romantic comedy about freshman Victor who has contracted a case of Anya-itis, (acute and incurable love passion for high school senior Anja.) And why shouldn't he?